<mxfile host="app.diagrams.net" agent="Mozilla/5.0 (Windows NT 10.0; Win64; x64) AppleWebKit/537.36 (KHTML, like Gecko) Chrome/131.0.0.0 Safari/537.36" version="25.0.3">
  <diagram id="prtHgNgQTEPvFCAcTncT" name="Page-1">
    <mxGraphModel dx="1050" dy="522" grid="1" gridSize="10" guides="1" tooltips="1" connect="1" arrows="1" fold="1" page="1" pageScale="1" pageWidth="827" pageHeight="1169" math="0" shadow="0">
      <root>
        <mxCell id="0" />
        <mxCell id="1" parent="0" />
        <mxCell id="dNxyNK7c78bLwvsdeMH5-11" value="Farmer Market Logical Model (partial)" style="swimlane;html=1;startSize=20;horizontal=1;containerType=tree;glass=0;" parent="1" vertex="1">
          <mxGeometry x="70" y="100" width="710" height="290" as="geometry" />
        </mxCell>
        <mxCell id="d8qmcgOsmMIcODJ5APxC-32" value="customer" style="swimlane;whiteSpace=wrap;html=1;" vertex="1" parent="dNxyNK7c78bLwvsdeMH5-11">
          <mxGeometry x="364" y="27.5" width="150" height="220" as="geometry" />
        </mxCell>
        <mxCell id="d8qmcgOsmMIcODJ5APxC-33" value="&lt;b&gt;customer_id&amp;nbsp; &lt;/b&gt;PK" style="text;html=1;align=center;verticalAlign=middle;resizable=0;points=[];autosize=1;strokeColor=none;fillColor=none;" vertex="1" parent="d8qmcgOsmMIcODJ5APxC-32">
          <mxGeometry x="-5" y="30" width="120" height="30" as="geometry" />
        </mxCell>
        <mxCell id="d8qmcgOsmMIcODJ5APxC-34" value="customer_first_name" style="text;html=1;align=center;verticalAlign=middle;resizable=0;points=[];autosize=1;strokeColor=none;fillColor=none;" vertex="1" parent="d8qmcgOsmMIcODJ5APxC-32">
          <mxGeometry y="60" width="140" height="30" as="geometry" />
        </mxCell>
        <mxCell id="d8qmcgOsmMIcODJ5APxC-35" value="customer_last_name" style="text;html=1;align=center;verticalAlign=middle;resizable=0;points=[];autosize=1;strokeColor=none;fillColor=none;" vertex="1" parent="d8qmcgOsmMIcODJ5APxC-32">
          <mxGeometry y="90" width="130" height="30" as="geometry" />
        </mxCell>
        <mxCell id="d8qmcgOsmMIcODJ5APxC-37" value="customer_postal_code" style="text;html=1;align=center;verticalAlign=middle;resizable=0;points=[];autosize=1;strokeColor=none;fillColor=none;" vertex="1" parent="d8qmcgOsmMIcODJ5APxC-32">
          <mxGeometry y="120" width="140" height="30" as="geometry" />
        </mxCell>
        <mxCell id="d8qmcgOsmMIcODJ5APxC-38" value="customer_purchases" style="swimlane;whiteSpace=wrap;html=1;" vertex="1" parent="dNxyNK7c78bLwvsdeMH5-11">
          <mxGeometry x="100" y="27.5" width="160" height="235" as="geometry" />
        </mxCell>
        <mxCell id="d8qmcgOsmMIcODJ5APxC-39" value="product_id" style="text;html=1;align=center;verticalAlign=middle;resizable=0;points=[];autosize=1;strokeColor=none;fillColor=none;" vertex="1" parent="d8qmcgOsmMIcODJ5APxC-38">
          <mxGeometry y="22.5" width="80" height="30" as="geometry" />
        </mxCell>
        <mxCell id="d8qmcgOsmMIcODJ5APxC-40" value="vendoe_id" style="text;html=1;align=center;verticalAlign=middle;resizable=0;points=[];autosize=1;strokeColor=none;fillColor=none;" vertex="1" parent="d8qmcgOsmMIcODJ5APxC-38">
          <mxGeometry y="52.5" width="80" height="30" as="geometry" />
        </mxCell>
        <mxCell id="d8qmcgOsmMIcODJ5APxC-41" value="market_date" style="text;html=1;align=center;verticalAlign=middle;resizable=0;points=[];autosize=1;strokeColor=none;fillColor=none;" vertex="1" parent="d8qmcgOsmMIcODJ5APxC-38">
          <mxGeometry y="82.5" width="90" height="30" as="geometry" />
        </mxCell>
        <mxCell id="d8qmcgOsmMIcODJ5APxC-42" value="&lt;b&gt;customer_id&lt;/b&gt;" style="text;html=1;align=center;verticalAlign=middle;resizable=0;points=[];autosize=1;strokeColor=none;fillColor=none;" vertex="1" parent="d8qmcgOsmMIcODJ5APxC-38">
          <mxGeometry y="112.5" width="90" height="30" as="geometry" />
        </mxCell>
        <mxCell id="d8qmcgOsmMIcODJ5APxC-43" value="quantity" style="text;html=1;align=center;verticalAlign=middle;resizable=0;points=[];autosize=1;strokeColor=none;fillColor=none;" vertex="1" parent="d8qmcgOsmMIcODJ5APxC-38">
          <mxGeometry y="142.5" width="70" height="30" as="geometry" />
        </mxCell>
        <mxCell id="d8qmcgOsmMIcODJ5APxC-44" value="cost_to_customer_per_qty" style="text;html=1;align=center;verticalAlign=middle;resizable=0;points=[];autosize=1;strokeColor=none;fillColor=none;" vertex="1" parent="d8qmcgOsmMIcODJ5APxC-38">
          <mxGeometry y="172.5" width="160" height="30" as="geometry" />
        </mxCell>
        <mxCell id="d8qmcgOsmMIcODJ5APxC-45" value="transaction_time" style="text;html=1;align=center;verticalAlign=middle;resizable=0;points=[];autosize=1;strokeColor=none;fillColor=none;" vertex="1" parent="d8qmcgOsmMIcODJ5APxC-38">
          <mxGeometry y="202.5" width="110" height="30" as="geometry" />
        </mxCell>
        <mxCell id="d8qmcgOsmMIcODJ5APxC-56" value="" style="shape=partialRectangle;whiteSpace=wrap;html=1;top=0;left=0;fillColor=none;" vertex="1" parent="dNxyNK7c78bLwvsdeMH5-11">
          <mxGeometry x="260" y="107.5" width="60" height="60" as="geometry" />
        </mxCell>
        <mxCell id="d8qmcgOsmMIcODJ5APxC-57" value="" style="shape=partialRectangle;whiteSpace=wrap;html=1;bottom=0;right=0;fillColor=none;" vertex="1" parent="dNxyNK7c78bLwvsdeMH5-11">
          <mxGeometry x="320" y="100" width="44" height="60" as="geometry" />
        </mxCell>
        <mxCell id="d8qmcgOsmMIcODJ5APxC-58" value="1" style="text;html=1;align=center;verticalAlign=middle;resizable=0;points=[];autosize=1;strokeColor=none;fillColor=none;" vertex="1" parent="dNxyNK7c78bLwvsdeMH5-11">
          <mxGeometry x="329" y="70" width="30" height="30" as="geometry" />
        </mxCell>
        <mxCell id="d8qmcgOsmMIcODJ5APxC-59" value="&lt;b&gt;&lt;font style=&quot;font-size: 20px;&quot;&gt;âˆž&lt;/font&gt;&lt;/b&gt;" style="text;html=1;align=center;verticalAlign=middle;resizable=0;points=[];autosize=1;strokeColor=none;fillColor=none;" vertex="1" parent="dNxyNK7c78bLwvsdeMH5-11">
          <mxGeometry x="270" y="140" width="40" height="40" as="geometry" />
        </mxCell>
      </root>
    </mxGraphModel>
  </diagram>
</mxfile>
